<svg viewBox="0 0 640 400" data-background-color="#ffffff" preserveAspectRatio="xMidYMid meet" height="400" width="640" xmlns="http://www.w3.org/2000/svg" xmlns:xlink="http://www.w3.org/1999/xlink"><rect width="640" height="400" x="0" y="0" opacity="1" fill="#ffffff" data-fill-palette-color="background" id="background"></rect><g id="tight-bounds" transform="matrix(1,0,0,1,122.24000000000001,161.31224291214164)"><svg viewBox="0 0 395.52 77.3755141757167" height="77.3755141757167" width="395.52"><g><svg viewBox="0 0 494.50034200761166 96.73902261050443" height="77.3755141757167" width="395.52"><g transform="matrix(1,0,0,1,0,13.369864919396782)"><svg viewBox="0 0 395.52 69.99929277171087" height="69.99929277171087" width="395.52"><g id="textblocktransform"><svg viewBox="0 0 395.52 69.99929277171087" height="69.99929277171087" width="395.52" id="textblock"><g><svg viewBox="0 0 395.52 69.99929277171087" height="69.99929277171087" width="395.52"><g transform="matrix(1,0,0,1,0,0)"><svg width="395.52" viewBox="1.350000023841858 -50 290.2799987792969 51.04999923706055" height="69.99929277171087" data-palette-color="#f5ba41"><g class="wordmark-text-0" data-fill-palette-color="primary" id="text-0"><path d="M29.55-50L18.95-40.55 17.9-40.55 14.9-50 16.5-50 19.5-46 27.35-50 29.55-50ZM7.6-28.55L7.6-28.55Q7.6-32.4 10.93-34.95 14.25-37.5 19.15-37.5L19.15-37.5Q22.95-37.5 25.08-35.95 27.2-34.4 27.2-31.5L27.2-31.5Q27.2-29.25 26.08-27.85 24.95-26.45 23.1-26.45L23.1-26.45Q22.4-26.45 21.83-26.7 21.25-26.95 20.8-27.5L20.8-27.5Q21.8-28.1 22.43-29.3 23.05-30.5 23.05-31.8L23.05-31.8Q23.05-33.4 22.1-34.27 21.15-35.15 19.35-35.15L19.35-35.15Q17.2-35.15 15.98-33.95 14.75-32.75 14.75-30.6L14.75-30.6Q14.75-28.85 15.65-27.28 16.55-25.7 19.55-23.05L19.55-23.05Q23.5-19.6 24.75-17.07 26-14.55 26-11.45L26-11.45Q26-5.75 22.05-2.35 18.1 1.05 11.95 1.05L11.95 1.05Q7.05 1.05 4.2-1.2 1.35-3.45 1.35-7.55L1.35-7.55Q1.35-11.15 3.5-13.45 5.65-15.75 8.7-15.75L8.7-15.75Q10.6-15.75 11.8-14.88 13-14 13.1-12.45L13.1-12.45Q10.5-12.45 8.88-11.2 7.25-9.95 7.25-7.75L7.25-7.75Q7.25-5.65 8.55-4.3 9.85-2.95 12.05-2.95L12.05-2.95Q14.65-2.95 16.25-4.75 17.85-6.55 17.85-9.6L17.85-9.6Q17.85-11.95 16.8-14.1 15.75-16.25 12.45-19.85L12.45-19.85Q9.45-23.05 8.53-24.88 7.6-26.7 7.6-28.55ZM33.85-34L41.25-35 37.5-17.4 47.15-25 52.1-25 42.1-18.05Q42.8-18.15 43.12-18.2 43.45-18.25 43.75-18.25L43.75-18.25Q46.3-18.25 47.77-16.65 49.25-15.05 49.25-12.4L49.25-12.4Q49.25-11.9 49.2-11.43 49.15-10.95 49.05-10.5L49.05-10.5 48.5-8Q48.4-7.4 48.32-7 48.25-6.6 48.25-6.4L48.25-6.4Q48.25-5.45 48.72-5 49.2-4.55 50.2-4.55L50.2-4.55Q51.45-4.55 52.35-5.4 53.25-6.25 54.4-8.95L54.4-8.95 56.5-8.95Q54.95-4.35 52.65-2.02 50.35 0.3 47.3 0.3L47.3 0.3Q44.25 0.3 42.62-1.18 41-2.65 41-5.4L41-5.4Q41-6 41.07-6.65 41.15-7.3 41.3-8L41.3-8 41.7-9.95Q41.8-10.4 41.85-10.85 41.9-11.3 41.9-11.8L41.9-11.8Q41.9-13 41.45-13.6 41-14.2 40.1-14.2L40.1-14.2Q39.35-14.2 38.47-13.78 37.6-13.35 36.4-12.35L36.4-12.35 33.8 0 26.6 0 33.85-34ZM53.7-7.7L53.7-7.7Q53.7-10.55 54.62-13.75 55.55-16.95 57.15-19.45L57.15-19.45Q59-22.4 61.6-23.93 64.2-25.45 67.4-25.45L67.4-25.45Q70.59-25.45 72.2-23.45 73.8-21.45 73.8-17.45L73.8-17.45Q73.9-17.4 74.02-17.38 74.15-17.35 74.34-17.35L74.34-17.35Q75.9-17.35 78.05-18.2 80.2-19.05 82.05-20.35L82.05-20.35 82.5-19Q81.09-17.5 78.77-16.4 76.45-15.3 73.65-14.85L73.65-14.85Q73.05-8.1 69.75-3.95 66.45 0.2 61.7 0.2L61.7 0.2Q57.8 0.2 55.75-1.8 53.7-3.8 53.7-7.7ZM67.8-22.4L67.8-22.4Q65.4-22.4 63.27-17.55 61.15-12.7 61.15-8.35L61.15-8.35Q61.15-6 61.67-5.15 62.2-4.3 63.7-4.3L63.7-4.3Q65.55-4.3 67.22-7.3 68.9-10.3 69.5-14.7L69.5-14.7Q68.8-14.85 68.47-15.38 68.15-15.9 68.15-16.8L68.15-16.8Q68.15-17.75 68.55-18.45 68.95-19.15 69.7-19.5L69.7-19.5Q69.59-21.1 69.17-21.75 68.75-22.4 67.8-22.4ZM75.94-5.7L75.94-5.7Q75.94-6.35 76.04-7.18 76.14-8 76.34-8.95L76.34-8.95 81.69-34 89.09-35 83.34-8Q83.24-7.55 83.19-7.18 83.14-6.8 83.14-6.4L83.14-6.4Q83.14-5.4 83.62-4.98 84.09-4.55 85.19-4.55L85.19-4.55Q86.59-4.55 87.84-5.78 89.09-7 89.69-8.95L89.69-8.95 91.79-8.95Q90.19-4.4 87.49-2.05 84.79 0.3 81.29 0.3L81.29 0.3Q78.79 0.3 77.37-1.28 75.94-2.85 75.94-5.7ZM95.04-34L102.44-35 98.69-17.4 108.34-25 113.29-25 103.29-18.05Q103.99-18.15 104.31-18.2 104.64-18.25 104.94-18.25L104.94-18.25Q107.49-18.25 108.97-16.65 110.44-15.05 110.44-12.4L110.44-12.4Q110.44-11.9 110.39-11.43 110.34-10.95 110.24-10.5L110.24-10.5 109.69-8Q109.59-7.4 109.52-7 109.44-6.6 109.44-6.4L109.44-6.4Q109.44-5.45 109.91-5 110.39-4.55 111.39-4.55L111.39-4.55Q112.64-4.55 113.54-5.4 114.44-6.25 115.59-8.95L115.59-8.95 117.69-8.95Q116.14-4.35 113.84-2.02 111.54 0.3 108.49 0.3L108.49 0.3Q105.44 0.3 103.81-1.18 102.19-2.65 102.19-5.4L102.19-5.4Q102.19-6 102.27-6.65 102.34-7.3 102.49-8L102.49-8 102.89-9.95Q102.99-10.4 103.04-10.85 103.09-11.3 103.09-11.8L103.09-11.8Q103.09-13 102.64-13.6 102.19-14.2 101.29-14.2L101.29-14.2Q100.54-14.2 99.66-13.78 98.79-13.35 97.59-12.35L97.59-12.35 94.99 0 87.79 0 95.04-34ZM131.84-22.7L131.84-22.7 131.84-22.35 132.39-25 139.59-25 135.99-8Q135.89-7.55 135.84-7.18 135.79-6.8 135.79-6.4L135.79-6.4Q135.79-5.3 136.29-4.78 136.79-4.25 137.84-4.25L137.84-4.25Q139.14-4.25 140.19-5.48 141.24-6.7 141.89-8.95L141.89-8.95 143.99-8.95Q142.39-4.35 139.84-2.02 137.29 0.3 133.94 0.3L133.94 0.3Q131.79 0.3 130.51-0.9 129.24-2.1 129.04-4.3L129.04-4.3Q127.49-2 125.61-0.85 123.74 0.3 121.59 0.3L121.59 0.3Q118.49 0.3 116.71-1.8 114.94-3.9 114.94-7.75L114.94-7.75Q114.94-10.55 115.79-13.6 116.64-16.65 118.14-19.15L118.14-19.15Q119.99-22.1 122.44-23.68 124.89-25.25 127.79-25.25L127.79-25.25Q129.74-25.25 130.79-24.58 131.84-23.9 131.84-22.7ZM128.99-8.95L131.39-20.25Q131.39-21 130.84-21.58 130.29-22.15 129.34-22.15L129.34-22.15Q126.59-22.15 124.46-17.55 122.34-12.95 122.34-8.45L122.34-8.45Q122.34-6.5 122.89-5.53 123.44-4.55 124.84-4.55L124.84-4.55Q126.14-4.55 127.36-5.8 128.59-7.05 128.99-8.95L128.99-8.95Z" fill="#f5ba41" data-fill-palette-color="primary"></path><path d="M161.49-34L161.49-34Q164.04-35.65 166.96-36.58 169.89-37.5 172.69-37.5L172.69-37.5Q173.04-37.5 173.46-37.48 173.89-37.45 174.69-37.4L174.69-37.4 175.14-6.65 185.64-37.25 189.14-37.25 175.24 0 167.64 0 167.64-34.15Q163.74-32.95 161.76-30.15 159.79-27.35 159.79-23.05L159.79-23.05Q159.79-22.1 159.91-21.4 160.04-20.7 160.34-20.05L160.34-20.05Q160.44-19.85 160.46-19.78 160.49-19.7 160.49-19.65L160.49-19.65Q157.69-19.65 156.41-20.83 155.14-22 155.14-24.5L155.14-24.5Q155.14-27 156.81-29.5 158.49-32 161.49-34ZM210.54-37.5L199.94-28.05 198.89-28.05 195.89-37.5 197.49-37.5 200.49-33.5 208.33-37.5 210.54-37.5ZM203.94-20.85L203.94-20.85Q203.94-19.15 203.21-18.18 202.49-17.2 201.29-17.2L201.29-17.2Q200.89-17.2 200.44-17.35 199.99-17.5 199.54-17.8L199.54-17.8Q199.84-18.6 199.99-19.35 200.14-20.1 200.14-20.75L200.14-20.75Q200.14-21.75 199.79-22.28 199.44-22.8 198.74-22.8L198.74-22.8Q196.54-22.8 194.44-17.73 192.34-12.65 192.34-8.1L192.34-8.1Q192.34-5.8 193.11-4.85 193.89-3.9 195.94-3.9L195.94-3.9Q198.29-3.9 200.26-4.98 202.24-6.05 204.79-8.95L204.79-8.95 206.49-8.95Q203.59-4.25 200.19-1.98 196.79 0.3 192.74 0.3L192.74 0.3Q188.89 0.3 186.91-1.7 184.94-3.7 184.94-7.65L184.94-7.65Q184.94-10.5 185.81-13.7 186.69-16.9 188.24-19.4L188.24-19.4Q190.09-22.4 192.66-23.93 195.24-25.45 198.39-25.45L198.39-25.45Q201.14-25.45 202.54-24.28 203.94-23.1 203.94-20.85ZM223.13-20.65L223.13-20.65Q223.13-16.5 219.73-13.43 216.33-10.35 211.63-10.1L211.63-10.1Q211.58-9.25 211.56-8.83 211.53-8.4 211.53-8.1L211.53-8.1Q211.53-5.8 212.31-4.85 213.08-3.9 215.13-3.9L215.13-3.9Q217.48-3.9 219.46-4.98 221.43-6.05 223.98-8.95L223.98-8.95 225.68-8.95Q222.78-4.25 219.38-1.98 215.98 0.3 211.93 0.3L211.93 0.3Q208.08 0.3 206.11-1.7 204.13-3.7 204.13-7.65L204.13-7.65Q204.13-10.5 205.03-13.7 205.93-16.9 207.43-19.4L207.43-19.4Q209.28-22.4 211.86-23.93 214.43-25.45 217.63-25.45L217.63-25.45Q220.38-25.45 221.76-24.28 223.13-23.1 223.13-20.65ZM218.03-22.8L218.03-22.8Q216.33-22.8 214.61-19.78 212.88-16.75 212.03-12.5L212.03-12.5Q214.93-12.7 217.11-15.18 219.28-17.65 219.28-20.75L219.28-20.75Q219.28-21.8 218.98-22.3 218.68-22.8 218.03-22.8ZM223.58-5.7L223.58-5.7Q223.58-6.35 223.68-7.18 223.78-8 223.98-8.95L223.98-8.95 229.33-34 236.73-35 230.98-8Q230.88-7.55 230.83-7.18 230.78-6.8 230.78-6.4L230.78-6.4Q230.78-5.4 231.26-4.98 231.73-4.55 232.83-4.55L232.83-4.55Q234.23-4.55 235.48-5.78 236.73-7 237.33-8.95L237.33-8.95 239.43-8.95Q237.83-4.4 235.13-2.05 232.43 0.3 228.93 0.3L228.93 0.3Q226.43 0.3 225.01-1.28 223.58-2.85 223.58-5.7ZM242.68-34L250.08-35 246.33-17.4 255.98-25 260.93-25 250.93-18.05Q251.63-18.15 251.95-18.2 252.28-18.25 252.58-18.25L252.58-18.25Q255.13-18.25 256.6-16.65 258.08-15.05 258.08-12.4L258.08-12.4Q258.08-11.9 258.03-11.43 257.98-10.95 257.88-10.5L257.88-10.5 257.33-8Q257.23-7.4 257.15-7 257.08-6.6 257.08-6.4L257.08-6.4Q257.08-5.45 257.55-5 258.03-4.55 259.03-4.55L259.03-4.55Q260.28-4.55 261.18-5.4 262.08-6.25 263.23-8.95L263.23-8.95 265.33-8.95Q263.78-4.35 261.48-2.02 259.18 0.3 256.13 0.3L256.13 0.3Q253.08 0.3 251.45-1.18 249.83-2.65 249.83-5.4L249.83-5.4Q249.83-6 249.9-6.65 249.98-7.3 250.13-8L250.13-8 250.53-9.95Q250.63-10.4 250.68-10.85 250.73-11.3 250.73-11.8L250.73-11.8Q250.73-13 250.28-13.6 249.83-14.2 248.93-14.2L248.93-14.2Q248.18-14.2 247.3-13.78 246.43-13.35 245.23-12.35L245.23-12.35 242.63 0 235.43 0 242.68-34ZM279.48-22.7L279.48-22.7 279.48-22.35 280.03-25 287.23-25 283.63-8Q283.53-7.55 283.48-7.18 283.43-6.8 283.43-6.4L283.43-6.4Q283.43-5.3 283.93-4.78 284.43-4.25 285.48-4.25L285.48-4.25Q286.78-4.25 287.83-5.48 288.88-6.7 289.53-8.95L289.53-8.95 291.63-8.95Q290.03-4.35 287.48-2.02 284.93 0.3 281.58 0.3L281.58 0.3Q279.43 0.3 278.15-0.9 276.88-2.1 276.68-4.3L276.68-4.3Q275.13-2 273.25-0.85 271.38 0.3 269.23 0.3L269.23 0.3Q266.13 0.3 264.35-1.8 262.58-3.9 262.58-7.75L262.58-7.75Q262.58-10.55 263.43-13.6 264.28-16.65 265.78-19.15L265.78-19.15Q267.63-22.1 270.08-23.68 272.53-25.25 275.43-25.25L275.43-25.25Q277.38-25.25 278.43-24.58 279.48-23.9 279.48-22.7ZM276.63-8.95L279.03-20.25Q279.03-21 278.48-21.58 277.93-22.15 276.98-22.15L276.98-22.15Q274.23-22.15 272.1-17.55 269.98-12.95 269.98-8.45L269.98-8.45Q269.98-6.5 270.53-5.53 271.08-4.55 272.48-4.55L272.48-4.55Q273.78-4.55 275-5.8 276.23-7.05 276.63-8.95L276.63-8.95Z" fill="#fce44d" data-fill-palette-color="secondary"></path></g></svg></g></svg></g></svg></g></svg></g><g transform="matrix(1,0,0,1,412.0451530403744,0)"><svg viewBox="0 0 82.45518896723726 96.73902261050443" height="96.73902261050443" width="82.45518896723726"><g><svg xmlns="http://www.w3.org/2000/svg" xmlns:xlink="http://www.w3.org/1999/xlink" version="1.1" x="0" y="0" viewBox="19.00080108642578 14.056121826171875 61.321128845214844 71.94387817382812" enable-background="new 0 0 100 100" xml:space="preserve" height="96.73902261050443" width="82.45518896723726" class="icon-icon-0" data-fill-palette-color="accent" id="icon-0"><g fill="#fce44d" data-fill-palette-color="accent"><g fill="#fce44d" data-fill-palette-color="accent"><path d="M41.976 79.218H57.1c0.99-1.106 2.005-2.337 3.008-3.687H39.049C39.924 76.77 40.896 78.005 41.976 79.218z" fill="#fce44d" data-fill-palette-color="accent"></path><path d="M45.868 52.607c0 1.777-0.135 3.503-0.417 5.174h8.349c-0.261-1.671-0.364-3.397-0.343-5.174H45.868z" fill="#fce44d" data-fill-palette-color="accent"></path><path d="M57.662 68.223H41.448c-0.728 1.138-1.543 2.241-2.447 3.311-0.158 0.219-0.688 0.859-0.999 1.213H61.02c-0.284-0.34-0.601-0.728-0.73-0.913C59.302 70.675 58.434 69.469 57.662 68.223z" fill="#fce44d" data-fill-palette-color="accent"></path><path d="M49.756 86c0 0 2.352-1.647 5.381-4.693H43.983C45.679 82.959 47.585 84.547 49.756 86z" fill="#fce44d" data-fill-palette-color="accent"></path><path d="M43 65.438h13.14c-0.738-1.562-1.315-3.189-1.75-4.872h-9.551C44.378 62.25 43.765 63.874 43 65.438z" fill="#fce44d" data-fill-palette-color="accent"></path><path d="M43.025 39.648l0.622-0.13 0.187 0.606c1.045 3.379 1.679 6.609 1.923 9.699h7.832c0.265-2.982 0.892-6.102 1.899-9.352l0.188-0.606 0.621 0.131c0.08 0.019 3.454 0.76 7.744 2.801-2.089-2.548-4.834-4.527-7.99-5.672 3.24-2.032 5.401-5.623 5.401-9.728 0-3.147-1.269-5.998-3.319-8.072l4.088-4.087c0.271-0.271 0.271-0.709 0-0.979s-0.709-0.271-0.979 0l-4.145 4.145c-1.961-1.556-4.435-2.492-7.132-2.492-2.874 0-5.496 1.064-7.511 2.81l-4.371-4.371c-0.271-0.271-0.709-0.271-0.979 0s-0.271 0.709 0 0.979l4.362 4.362c-1.851 2.039-2.988 4.736-2.988 7.706 0 4.037 2.094 7.583 5.247 9.631-2.961 1.022-5.575 2.781-7.638 5.05C39.983 40.321 42.952 39.665 43.025 39.648z" fill="#fce44d" data-fill-palette-color="accent"></path><path d="M42.699 41.165c-3.35 0.883-19.249 5.815-23.294 20.561l-0.158 0.609c-0.035 0.13-0.069 0.26-0.104 0.393l-0.013 0.246c-0.894 5.632 2.947 10.985 8.568 11.934 3.341 0.564 6.729-0.528 9.127-2.928 0.116-0.119 0.865-1.007 1.077-1.303C44.574 62.825 46.174 52.91 42.699 41.165z" fill="#fce44d" data-fill-palette-color="accent"></path><path d="M80.193 63.322l-0.06-0.391 0.006-0.007c-0.021-0.081-0.041-0.162-0.065-0.24l-0.154-0.601c-4.049-14.756-19.944-19.69-23.297-20.572-3.474 11.748-1.876 21.659 4.762 29.466 0.249 0.341 0.995 1.23 1.114 1.35 2.396 2.396 5.781 3.492 9.125 2.927C77.245 74.306 81.086 68.953 80.193 63.322z" fill="#fce44d" data-fill-palette-color="accent"></path></g></g></svg></g></svg></g></svg></g><defs></defs></svg><rect width="395.52" height="77.3755141757167" fill="none" stroke="none" visibility="hidden"></rect></g></svg>